<?xml version="1.0" encoding="UTF-8"?>
<svg id="Layer_1" data-name="Layer 1" xmlns="http://www.w3.org/2000/svg" viewBox="0 0 576 213.564">
  <g>
    <path d="M102.325,176.718v-3.759c0-.983-.47-1.453-1.453-1.453h-6.665c-.983,0-1.452.47-1.452,1.453v16.577c0,.983.47,1.453,1.452,1.453h6.665c.983,0,1.453-.47,1.453-1.453v-3.759h6.152v4.956c0,3.587-2.478,6.066-6.067,6.066h-9.741c-3.588,0-6.066-2.478-6.066-6.066v-18.97c0-3.589,2.478-6.067,6.066-6.067h9.741c3.589,0,6.067,2.478,6.067,6.067v4.956h-6.152Z"/>
    <path d="M130.655,165.694c3.589,0,6.067,2.478,6.067,6.067v18.97c0,3.587-2.478,6.066-6.067,6.066h-10.297c-3.589,0-6.066-2.478-6.066-6.066v-18.97c0-3.589,2.477-6.067,6.066-6.067h10.297ZM130.569,172.958c0-.983-.469-1.453-1.452-1.453h-7.22c-.983,0-1.453.47-1.453,1.453v16.577c0,.983.47,1.453,1.453,1.453h7.22c.983,0,1.452-.47,1.452-1.453v-16.577Z"/>
    <path d="M143.819,165.865h6.153v24.952h12.902v5.811h-19.055v-30.762Z"/>
    <path d="M168.603,165.865h6.153v24.952h12.902v5.811h-19.055v-30.762Z"/>
    <path d="M193.388,165.865h20.123v5.811h-13.97v6.323h11.322v5.811h-11.322v7.006h13.97v5.811h-20.123v-30.762Z"/>
    <path d="M235.05,175.777v-2.819c0-.983-.47-1.453-1.453-1.453h-7.05c-.981,0-1.452.47-1.452,1.453v16.577c0,.983.47,1.453,1.452,1.453h7.05c.983,0,1.453-.47,1.453-1.453v-4.572h-5.639v-5.555h11.791v11.323c0,3.587-2.478,6.066-6.066,6.066h-10.127c-3.589,0-6.067-2.478-6.067-6.066v-18.97c0-3.589,2.478-6.067,6.067-6.067h10.127c3.588,0,6.066,2.478,6.066,6.067v4.016h-6.152Z"/>
    <path d="M248.172,165.865h20.123v5.811h-13.97v6.323h11.322v5.811h-11.322v7.006h13.97v5.811h-20.123v-30.762Z"/>
    <path d="M302.78,165.694c3.589,0,6.067,2.478,6.067,6.067v18.97c0,3.587-2.478,6.066-6.067,6.066h-10.297c-3.589,0-6.067-2.478-6.067-6.066v-18.97c0-3.589,2.478-6.067,6.067-6.067h10.297ZM302.694,172.958c0-.983-.469-1.453-1.452-1.453h-7.22c-.983,0-1.453.47-1.453,1.453v16.577c0,.983.47,1.453,1.453,1.453h7.22c.983,0,1.452-.47,1.452-1.453v-16.577Z"/>
    <path d="M315.944,196.627v-30.762h20.123v5.811h-13.97v6.58h11.322v5.811h-11.322v12.561h-6.153Z"/>
    <path d="M383.543,165.865v30.762h-5.811v-20.508l-6.666,15.594h-4.442l-6.666-15.594v20.508h-5.811v-30.762h6.75l7.947,18.031,7.947-18.031h6.752Z"/>
    <path d="M397.091,189.705l-2.05,6.922h-6.366l9.911-30.762h7.178l9.913,30.762h-6.623l-2.008-6.922h-9.955ZM402.133,172.616l-3.333,11.28h6.58l-3.247-11.28Z"/>
    <path d="M443.496,196.627h-6.623l-4.955-11.408h-4.956v11.408h-6.153v-30.762h15.68c3.589,0,6.067,2.478,6.067,6.067v7.22c0,2.906-1.623,5.084-4.188,5.811l5.128,11.664ZM436.403,173.129c0-.983-.47-1.453-1.453-1.453h-7.989v7.819h7.989c.983,0,1.453-.47,1.453-1.453v-4.912Z"/>
    <path d="M449.653,196.627v-30.762h6.153v30.762h-6.153Z"/>
    <path d="M481.572,165.865h5.767v30.762h-6.622l-11.322-20.978v20.978h-5.769v-30.762h6.622l11.323,20.978v-20.978Z"/>
  </g>
  <g>
    <path d="M138.025,8.351v131.506h-24.84V52.186l-28.494,66.667h-18.995l-28.493-66.667v87.671H12.362V8.351h28.859l33.972,77.076L109.166,8.351h28.859Z" fill="#c4b483"/>
    <path d="M191.37,110.268l-8.766,29.589h-27.216L197.763,8.351h30.685l42.374,131.506h-28.31l-8.584-29.589h-42.558ZM212.923,37.208l-14.246,48.219h28.128l-13.881-48.219Z" fill="#c4b483"/>
    <path d="M385.168,139.857h-28.31l-21.187-48.767h-21.187v48.767h-26.302V8.351h67.033c15.342,0,25.936,10.594,25.936,25.936v30.867c0,12.421-6.941,21.736-17.899,24.84l21.917,49.863ZM354.848,39.4c0-4.201-2.008-6.21-6.21-6.21h-34.155v33.424h34.155c4.201,0,6.21-2.008,6.21-6.21v-21.005Z" fill="#c4b483"/>
    <path d="M406.912,139.857V8.351h26.302v131.506h-26.302Z" fill="#c4b483"/>
    <path d="M538.787,8.351h24.657v131.506h-28.31l-48.403-89.681v89.681h-24.657V8.351h28.312l48.401,89.679V8.351Z" fill="#c4b483"/>
  </g>
  <g>
    <path d="M138.025,8.351v131.506h-10.594V18.944h-12.238l-37.99,83.835h-4.019L35.194,18.944h-12.238v120.913h-10.594V8.351h28.859l33.972,77.076L109.166,8.351h28.859ZM123.779,22.597v117.26h-10.594V52.186l-28.494,66.667h-18.995l-28.493-66.667v87.671h-10.594V22.597h6.574l37.992,83.835h8.037L117.203,22.597h6.576Z"/>
    <path d="M270.822,139.857h-12.237l-37.078-120.913h-16.803l-37.627,120.913h-11.689L197.763,8.351h30.685l42.374,131.506ZM242.876,99.675l12.238,40.182h-12.603l-8.584-29.589h-42.558l-8.766,29.589h-12.056l12.421-40.182h59.908ZM219.315,22.597l22.465,73.423h-57.716l22.832-73.423h12.419ZM226.804,85.427l-13.881-48.219-14.246,48.219h28.128Z"/>
    <path d="M385.168,139.857h-12.237l-25.753-59.179h4.749c11.141,0,17.899-6.757,17.899-17.899v-25.936c0-11.142-6.758-17.899-17.899-17.899h-52.42v120.913h-11.325V8.351h67.033c15.342,0,25.936,10.594,25.936,25.936v30.867c0,12.421-6.941,21.736-17.899,24.84l21.917,49.863ZM366.173,62.779c0,9.315-4.931,14.246-14.246,14.246h-48.767V22.597h48.767c9.315,0,14.246,4.931,14.246,14.246v25.936ZM343.342,80.678l25.753,59.179h-12.238l-21.187-48.767h-21.187v48.767h-11.325v-59.179h40.183ZM314.484,66.614h34.155c4.201,0,6.21-2.008,6.21-6.21v-21.005c0-4.201-2.008-6.21-6.21-6.21h-34.155v33.424Z"/>
    <path d="M418.236,8.351v131.506h-11.325V8.351h11.325ZM433.214,8.351v131.506h-11.325V8.351h11.325Z"/>
    <path d="M472.667,18.944v120.913h-10.594V8.351h28.312l48.401,89.679V8.351h10.411v117.26h-6.21l-58.631-106.666h-11.689ZM563.444,8.351v131.506h-28.31l-48.403-89.681v89.681h-10.41V22.597h6.21l58.63,106.666h11.689V8.351h10.594Z"/>
  </g>
</svg>